<svg width="63" height="24" viewBox="0 0 63 24" fill="none" xmlns="http://www.w3.org/2000/svg">
<g clip-path="url(#clip0_1566_797)">
<path d="M60.5626 4.8985C61.9088 4.8985 63.0001 3.80193 63.0001 2.44925C63.0001 1.09657 61.9088 0 60.5626 0C59.2163 0 58.125 1.09657 58.125 2.44925C58.125 3.80193 59.2163 4.8985 60.5626 4.8985Z" fill="#21CEDD"/>
<path d="M19.174 23.2131H19.1784L11.9995 13.8564C15.0425 13.0244 17.1756 10.2754 17.2328 7.10813C17.1149 3.08411 13.7709 -0.0831185 9.76169 0.0335967C9.71241 0.0335967 9.66401 0.0380177 9.61033 0.0406704H0.269276C0.215597 0.0406704 0.167197 0.0565861 0.124958 0.0857649C0.0492792 0.128207 0 0.206901 0 0.293553V23.6702C0.00439993 23.8152 0.124958 23.9293 0.269276 23.9248H4.48353C4.62785 23.9293 4.74401 23.8108 4.74401 23.6702V14.2171H6.3711L13.2702 23.3342C13.6556 23.748 14.2003 23.9805 14.7662 23.969H18.9109C19.2849 23.969 19.4715 23.5844 19.1714 23.2086L19.174 23.2131ZM10.1286 9.69178C10.0081 9.69885 9.89017 9.69885 9.76785 9.69178C9.75641 9.70327 9.4581 9.69178 9.3965 9.69178H4.74401V4.66772H9.61297C9.64377 4.66772 9.67721 4.66065 9.70889 4.6518L9.76873 4.66772C11.1512 4.56957 12.3515 5.61382 12.4492 6.99849C12.5469 8.38492 11.5093 9.59098 10.1269 9.69178H10.1295H10.1286Z" fill="#4F42ED"/>
<path d="M58.4232 23.9903H53.9889C53.4099 23.9903 52.8828 23.6596 52.6285 23.1379L46.1192 9.70327L45.783 9.04101L42.9204 15.0987L41.9789 17.0802C39.7639 21.4199 35.2778 24.1061 30.4229 23.9965C30.2979 24.0009 30.1738 24.0009 30.0489 23.9965C23.4639 23.8939 18.2104 18.449 18.3107 11.8324C18.4128 5.22035 23.8379 -0.055705 30.4229 0.0450945C32.0772 0.0450945 33.7131 0.380208 35.2311 1.03364C35.5162 1.16361 35.5162 1.32189 35.5162 1.54559V5.84725C35.5162 6.25399 35.1537 6.22746 34.8686 6.03028V6.03736C33.5662 5.12044 32.0148 4.63059 30.4229 4.63059C30.2451 4.62616 30.0665 4.62616 29.8861 4.63059C25.8346 4.77825 22.6693 8.20012 22.818 12.2692C22.9694 16.3384 26.3732 19.5162 30.4246 19.3685H30.6631C36.244 19.3685 37.3149 15.7406 39.859 10.3567C39.859 10.3567 44.0574 1.5058 44.3715 0.846185C44.3759 0.839111 44.3786 0.830269 44.3874 0.819659C44.6479 0.330693 45.1503 0 45.7276 0C46.333 0 46.8601 0.368714 47.1004 0.901006H47.1048C47.5325 1.81793 51.6147 10.316 51.6174 10.3222L58.4205 23.9894H58.4232V23.9903Z" fill="#4F42ED"/>
</g>
<defs>
<clipPath id="clip0_1566_797">
<rect width="63" height="24" fill="white"/>
</clipPath>
</defs>
</svg>